<svg width="70" height="70" viewBox="0 0 70 70" fill="none" xmlns="http://www.w3.org/2000/svg">
<path d="M22 33.75C21.3096 33.75 20.75 34.3096 20.75 35C20.75 35.6904 21.3096 36.25 22 36.25V33.75ZM48.8839 35.8839C49.372 35.3957 49.372 34.6043 48.8839 34.1161L40.9289 26.1612C40.4408 25.673 39.6493 25.673 39.1612 26.1612C38.673 26.6493 38.673 27.4408 39.1612 27.9289L46.2322 35L39.1612 42.0711C38.673 42.5592 38.673 43.3507 39.1612 43.8388C39.6493 44.327 40.4408 44.327 40.9289 43.8388L48.8839 35.8839ZM22 36.25H48V33.75H22V36.25Z" fill="black"/>
</svg>
