<svg width="70" height="70" viewBox="0 0 70 70" fill="none" xmlns="http://www.w3.org/2000/svg">
<path d="M48 36.25C48.6904 36.25 49.25 35.6904 49.25 35C49.25 34.3096 48.6904 33.75 48 33.75L48 36.25ZM21.1161 34.1161C20.628 34.6043 20.628 35.3957 21.1161 35.8839L29.0711 43.8388C29.5592 44.327 30.3507 44.327 30.8388 43.8388C31.327 43.3507 31.327 42.5592 30.8388 42.0711L23.7678 35L30.8388 27.9289C31.327 27.4408 31.327 26.6493 30.8388 26.1612C30.3507 25.673 29.5592 25.673 29.0711 26.1612L21.1161 34.1161ZM48 33.75L22 33.75L22 36.25L48 36.25L48 33.75Z" fill="black"/>
</svg>
