<svg width="121" height="35" viewBox="0 0 121 35" fill="none" xmlns="http://www.w3.org/2000/svg">
<path d="M84.0858 22.1496V2.7589H100.508C102.033 2.7589 103.137 3.0506 103.819 3.63929C104.507 4.22957 104.848 5.17798 104.848 6.4871V10.773C104.848 12.0567 104.507 12.9997 103.819 13.5893C103.137 14.1848 102.033 14.4824 100.508 14.4824H88.4811V22.1496H84.0858ZM1.35245 30.3047V31.6793H3.96923C4.16324 31.6793 4.29771 31.6422 4.37255 31.5672C4.44749 31.4931 4.48425 31.3595 4.48425 31.1699V30.8145C4.48425 30.6277 4.44553 30.4946 4.36881 30.4182C4.29291 30.3416 4.15934 30.3047 3.96923 30.3047H1.35245ZM100.26 32.3401V27.823H104.807V28.4942H101.112V29.6547H103.339V30.3256H101.112V31.6793H104.848V32.3401H100.26ZM98.086 28.4942H94.9327V31.6578H98.086V30.5813L98.9382 30.7429V31.2728C98.9382 31.6863 98.8615 31.9671 98.7072 32.1161C98.5527 32.2655 98.2598 32.3401 97.8303 32.3401H95.1777C94.7485 32.3401 94.4572 32.2673 94.3063 32.1235C94.1552 31.9797 94.081 31.6973 94.081 31.2728V28.8959C94.081 28.475 94.1571 28.1925 94.3095 28.0452C94.4621 27.8976 94.7513 27.823 95.1777 27.823H97.8303C98.2598 27.823 98.5527 27.8976 98.7072 28.0482C98.8615 28.1995 98.9382 28.482 98.9382 28.8959V29.3222L98.086 29.4626V28.4942ZM88.0999 28.7288C88.1211 28.8604 88.1353 28.9936 88.1459 29.1288C88.1569 29.2654 88.162 29.4001 88.162 29.5355V32.3401H87.3772V27.823H88.0272L91.3399 30.7738C91.4373 30.8565 91.5302 30.9493 91.6187 31.0488C91.7072 31.1499 91.7944 31.2655 91.8814 31.3933C91.8573 31.2582 91.839 31.1198 91.8265 30.9815C91.8141 30.8424 91.8084 30.6989 91.8084 30.5498V27.823H92.5934V32.3401H92.0111L88.6309 29.3471C88.512 29.2366 88.4103 29.1322 88.3257 29.0323C88.2403 28.9327 88.1655 28.8319 88.0999 28.7288ZM81.6827 32.3401V27.823H86.2295V28.4942H82.5345V29.6547H84.761V30.3256H82.5345V31.6793H86.2705V32.3401H81.6827ZM76.4758 32.3401V27.823H77.3278V31.6578H80.8397V32.3401H76.4758ZM71.2693 32.3401V27.823H72.1212V31.6578H75.6332V32.3401H71.2693ZM65.5743 32.3401V27.823H70.1208V28.4942H66.4267V29.6547H68.653V30.3256H66.4267V31.6793H70.162V32.3401H65.5743ZM63.3999 28.4942H60.2472V31.6578H63.3999V30.5813L64.2526 30.7429V31.2728C64.2526 31.6863 64.1757 31.9671 64.0214 32.1161C63.8669 32.2655 63.5742 32.3401 63.1445 32.3401H60.4923C60.0625 32.3401 59.7715 32.2673 59.6204 32.1235C59.4695 31.9797 59.3952 31.6973 59.3952 31.2728V28.8959C59.3952 28.475 59.4715 28.1925 59.6235 28.0452C59.7765 27.8976 60.0657 27.823 60.4923 27.823H63.1445C63.5742 27.823 63.8669 27.8976 64.0214 28.0482C64.1757 28.1995 64.2526 28.482 64.2526 28.8959V29.3222L63.3999 29.4626V28.4942ZM52.9914 32.3401L55.259 30.0291L52.9559 27.823H54.1101L55.7381 29.4626L57.2308 27.823H58.2806L56.2049 29.9208L58.744 32.3401H57.5473L55.7272 30.5086L54.0887 32.3401H52.9914ZM47.9887 32.3401V27.823H52.536V28.4942H48.8413V29.6547H51.0678V30.3256H48.8413V31.6793H52.5767V32.3401H47.9887ZM41.7579 28.4942H38.1876V31.6578H41.7579V30.4306H39.9153V29.8161H42.6106V31.2728C42.6106 31.6863 42.5339 31.9671 42.3798 32.1161C42.2253 32.2655 41.9321 32.3401 41.5025 32.3401H38.4431C38.0137 32.3401 37.7206 32.2655 37.5664 32.118C37.4117 31.9712 37.336 31.69 37.336 31.2728V28.8959C37.336 28.482 37.4136 28.1995 37.5703 28.0482C37.7265 27.8976 38.0172 27.823 38.4431 27.823H41.5025C41.9233 27.823 42.2126 27.8976 42.3706 28.0471C42.5304 28.1959 42.6106 28.4588 42.6106 28.8337V28.9632L41.7579 29.109V28.4942ZM31.3551 28.7288C31.3762 28.8604 31.3905 28.9936 31.4015 29.1288C31.412 29.2654 31.4169 29.4001 31.4169 29.5355V32.3401H30.6321V27.823H31.2823L34.5949 30.7738C34.6927 30.8565 34.7849 30.9493 34.8735 31.0488C34.9624 31.1499 35.0492 31.2655 35.1366 31.3933C35.1117 31.2582 35.0938 31.1198 35.0816 30.9815C35.0693 30.8424 35.0635 30.6989 35.0635 30.5498V27.823H35.8486V32.3401H35.2663L31.8857 29.3471C31.7669 29.2366 31.6655 29.1322 31.5803 29.0323C31.4953 28.9327 31.4205 28.8319 31.3551 28.7288ZM29.0565 32.3401H28.2075V27.8337H29.0565V32.3401ZM23.8125 28.4942H22.1579V31.6578H23.8125C24.5475 31.6578 25.0712 31.5336 25.3821 31.287C25.6928 31.0381 25.8471 30.6293 25.8471 30.0611C25.8471 29.5047 25.6908 29.1055 25.3765 28.8623C25.0624 28.6172 24.5406 28.4942 23.8125 28.4942ZM23.9061 27.823C24.3362 27.823 24.6983 27.8513 24.9914 27.9077C25.284 27.9665 25.5257 28.0539 25.7153 28.171C26.0245 28.3667 26.266 28.6308 26.4398 28.9652C26.6119 29.3006 26.6988 29.6682 26.6988 30.0719C26.6988 30.8305 26.4685 31.3987 26.0064 31.775C25.5471 32.1518 24.846 32.3401 23.9061 32.3401H21.3055V27.823H23.9061ZM15.7508 32.3401V27.823H16.6034V31.6578H20.1149V32.3401H15.7508ZM14.1747 32.3401H13.3261V27.8337H14.1747V32.3401ZM7.58878 27.823V31.6578H10.8878V27.823H11.7506V31.2728C11.7506 31.69 11.6743 31.9712 11.5197 32.118C11.3652 32.2655 11.072 32.3401 10.6424 32.3401H7.84434C7.41457 32.3401 7.12166 32.2655 6.96746 32.1161C6.81302 31.9671 6.73629 31.6863 6.73629 31.2728V27.823H7.58878ZM4.45242 29.2797V28.8534C4.45242 28.7148 4.41668 28.6188 4.34739 28.5636C4.27855 28.5104 4.15235 28.484 3.96923 28.484H1.35245V29.6438H3.96923C4.1665 29.6438 4.29593 29.6171 4.35826 29.5654C4.42035 29.5141 4.45242 29.4181 4.45242 29.2797ZM0.5 32.3401V27.823H4.31203C4.65819 27.823 4.91053 27.8941 5.06655 28.0346C5.22297 28.175 5.30087 28.3985 5.30087 28.7078V29.228C5.30087 29.4662 5.23857 29.6471 5.11466 29.772C4.98866 29.8939 4.78971 29.9723 4.51585 30.0025C4.78261 30.0311 4.98493 30.1198 5.12484 30.2708C5.26345 30.422 5.33277 30.6242 5.33277 30.8764V31.4555C5.33277 31.7539 5.22476 31.9756 5.00977 32.1215C4.79516 32.2673 4.46647 32.3401 4.02632 32.3401H0.5ZM4.4431 16.2628H0.5V17.0817V17.6091C0.5 19.3518 0.82841 20.5432 1.47982 21.188C2.13688 21.8271 3.40729 22.1496 5.29281 22.1496H16.3833C18.2435 22.1496 19.5082 21.8271 20.1776 21.1759C20.8407 20.5305 21.1763 19.3396 21.1763 17.6025V14.7927C21.1763 13.043 20.8474 11.8525 20.1846 11.207C19.5267 10.5682 18.2558 10.2457 16.3833 10.2457H4.41212V5.9404H17.2391V8.12367H21.1822V6.79669C21.1822 5.22073 20.8352 4.12311 20.1472 3.50294C19.4588 2.88853 18.2122 2.57826 16.4215 2.57826H5.26752C3.41513 2.57826 2.15494 2.90111 1.49822 3.55194C0.834544 4.19696 0.506201 5.38893 0.506201 7.12524V9.42679C0.506201 11.1751 0.834544 12.3669 1.48578 13.0121C2.14326 13.6506 3.40136 13.9736 5.26752 13.9736H17.2328V18.5332H4.4431V16.2628ZM25.9328 22.1496V2.57826H30.4029V10.2089H44.3459V2.57826H48.8531V22.1496H44.3459V13.7008H30.4029V22.1496H25.9328ZM53.6093 22.1496V2.57826H58.0794V22.1496H53.6093ZM62.836 22.1496V2.57826H67.3059V18.5332H79.329V22.1496H62.836ZM98.5301 6.08333H88.4811V11.1758H98.5301C99.2929 11.1758 99.8201 11.0643 100.111 10.8473C100.403 10.6304 100.545 10.2332 100.545 9.65036V7.59102C100.545 7.05735 100.403 6.67271 100.111 6.43708C99.8199 6.2012 99.2926 6.08333 98.5301 6.08333ZM103.815 20.2601C103.727 20.3583 103.595 20.4198 103.42 20.4455C103.507 20.4964 103.579 20.5525 103.635 20.6136C103.692 20.6748 103.769 20.7835 103.865 20.9394L104.109 21.3307H103.626L103.335 20.8928C103.231 20.7373 103.16 20.6392 103.121 20.5986C103.083 20.5584 103.042 20.5305 102.999 20.5155C102.956 20.5007 102.888 20.4932 102.794 20.4932H102.712V21.3307H102.306V19.3251H103.159C103.373 19.3251 103.529 19.3433 103.626 19.3792C103.724 19.4152 103.801 19.4791 103.859 19.5711C103.918 19.6635 103.947 19.7686 103.947 19.8872C103.947 20.0379 103.903 20.1622 103.815 20.2601ZM103.042 18.5333C102.042 18.5333 101.233 19.3587 101.233 20.3424C101.233 21.342 102.06 22.1496 103.042 22.1496C104.04 22.1496 104.848 21.325 104.848 20.3424C104.848 19.3463 104.038 18.5333 103.042 18.5333ZM103.012 20.1738C103.206 20.1738 103.327 20.1654 103.375 20.1491C103.423 20.1328 103.462 20.1043 103.489 20.0641C103.516 20.0239 103.53 19.9735 103.53 19.9133C103.53 19.8457 103.512 19.7915 103.476 19.7494C103.44 19.7078 103.389 19.6818 103.324 19.671C103.291 19.6663 103.192 19.664 103.028 19.664H102.712V20.1738H103.012Z" fill="white"/>
</svg>
