<svg width="105" height="30" viewBox="0 0 105 30" fill="none" xmlns="http://www.w3.org/2000/svg">
<path d="M83.5858 19.7627V0.372049H100.008C101.533 0.372049 102.637 0.663745 103.319 1.25244C104.007 1.84272 104.348 2.79113 104.348 4.10025V8.38616C104.348 9.66987 104.007 10.6129 103.319 11.2025C102.637 11.7979 101.533 12.0955 100.008 12.0955H87.9811V19.7627H83.5858ZM0.85245 27.9179V29.2924H3.46923C3.66324 29.2924 3.79771 29.2554 3.87255 29.1803C3.94749 29.1062 3.98425 28.9726 3.98425 28.7831V28.4277C3.98425 28.2408 3.94553 28.1078 3.86881 28.0314C3.79291 27.9547 3.65934 27.9179 3.46923 27.9179H0.85245ZM99.7599 29.9532V25.4361H104.307V26.1073H100.612V27.2678H102.839V27.9388H100.612V29.2924H104.348V29.9532H99.7599ZM97.586 26.1073H94.4327V29.271H97.586V28.1945L98.4382 28.356V28.886C98.4382 29.2994 98.3615 29.5802 98.2072 29.7292C98.0527 29.8787 97.7598 29.9532 97.3303 29.9532H94.6777C94.2485 29.9532 93.9572 29.8804 93.8063 29.7367C93.6552 29.5929 93.581 29.3105 93.581 28.886V26.509C93.581 26.0882 93.6571 25.8056 93.8095 25.6583C93.9621 25.5107 94.2513 25.4361 94.6777 25.4361H97.3303C97.7598 25.4361 98.0527 25.5107 98.2072 25.6614C98.3615 25.8126 98.4382 26.0951 98.4382 26.509V26.9354L97.586 27.0757V26.1073ZM87.5999 26.3419C87.6211 26.4735 87.6353 26.6067 87.6459 26.7419C87.6569 26.8786 87.662 27.0132 87.662 27.1486V29.9532H86.8772V25.4361H87.5272L90.8399 28.3869C90.9373 28.4697 91.0302 28.5624 91.1187 28.662C91.2072 28.763 91.2944 28.8786 91.3814 29.0065C91.3573 28.8713 91.339 28.733 91.3265 28.5947C91.3141 28.4555 91.3084 28.3121 91.3084 28.163V25.4361H92.0934V29.9532H91.5111L88.1309 26.9602C88.012 26.8497 87.9103 26.7454 87.8257 26.6454C87.7403 26.5459 87.6655 26.4451 87.5999 26.3419ZM81.1827 29.9532V25.4361H85.7295V26.1073H82.0345V27.2678H84.261V27.9388H82.0345V29.2924H85.7705V29.9532H81.1827ZM75.9758 29.9532V25.4361H76.8278V29.271H80.3397V29.9532H75.9758ZM70.7693 29.9532V25.4361H71.6212V29.271H75.1332V29.9532H70.7693ZM65.0743 29.9532V25.4361H69.6208V26.1073H65.9267V27.2678H68.153V27.9388H65.9267V29.2924H69.662V29.9532H65.0743ZM62.8999 26.1073H59.7472V29.271H62.8999V28.1945L63.7526 28.356V28.886C63.7526 29.2994 63.6757 29.5802 63.5214 29.7292C63.3669 29.8787 63.0742 29.9532 62.6445 29.9532H59.9923C59.5625 29.9532 59.2715 29.8804 59.1204 29.7367C58.9695 29.5929 58.8952 29.3105 58.8952 28.886V26.509C58.8952 26.0882 58.9715 25.8056 59.1235 25.6583C59.2765 25.5107 59.5657 25.4361 59.9923 25.4361H62.6445C63.0742 25.4361 63.3669 25.5107 63.5214 25.6614C63.6757 25.8126 63.7526 26.0951 63.7526 26.509V26.9354L62.8999 27.0757V26.1073ZM52.4914 29.9532L54.759 27.6422L52.4559 25.4361H53.6101L55.2381 27.0757L56.7308 25.4361H57.7806L55.7049 27.5339L58.244 29.9532H57.0473L55.2272 28.1217L53.5887 29.9532H52.4914ZM47.4887 29.9532V25.4361H52.036V26.1073H48.3413V27.2678H50.5678V27.9388H48.3413V29.2924H52.0767V29.9532H47.4887ZM41.2579 26.1073H37.6876V29.271H41.2579V28.0437H39.4153V27.4293H42.1106V28.886C42.1106 29.2994 42.0339 29.5802 41.8798 29.7292C41.7253 29.8787 41.4321 29.9532 41.0025 29.9532H37.9431C37.5137 29.9532 37.2206 29.8787 37.0664 29.7312C36.9117 29.5844 36.836 29.3031 36.836 28.886V26.509C36.836 26.0951 36.9136 25.8126 37.0703 25.6614C37.2265 25.5107 37.5172 25.4361 37.9431 25.4361H41.0025C41.4233 25.4361 41.7126 25.5107 41.8706 25.6603C42.0304 25.8091 42.1106 26.0719 42.1106 26.4469V26.5763L41.2579 26.7221V26.1073ZM30.8551 26.3419C30.8762 26.4735 30.8905 26.6067 30.9015 26.7419C30.912 26.8786 30.9169 27.0132 30.9169 27.1486V29.9532H30.1321V25.4361H30.7823L34.0949 28.3869C34.1927 28.4697 34.2849 28.5624 34.3735 28.662C34.4624 28.763 34.5492 28.8786 34.6366 29.0065C34.6117 28.8713 34.5938 28.733 34.5816 28.5947C34.5693 28.4555 34.5635 28.3121 34.5635 28.163V25.4361H35.3486V29.9532H34.7663L31.3857 26.9602C31.2669 26.8497 31.1655 26.7454 31.0803 26.6454C30.9953 26.5459 30.9205 26.4451 30.8551 26.3419ZM28.5565 29.9532H27.7075V25.4469H28.5565V29.9532ZM23.3125 26.1073H21.6579V29.271H23.3125C24.0475 29.271 24.5712 29.1468 24.8821 28.9001C25.1928 28.6513 25.3471 28.2425 25.3471 27.6743C25.3471 27.1179 25.1908 26.7186 24.8765 26.4755C24.5624 26.2303 24.0406 26.1073 23.3125 26.1073ZM23.4061 25.4361C23.8362 25.4361 24.1983 25.4645 24.4914 25.5209C24.784 25.5796 25.0257 25.667 25.2153 25.7842C25.5245 25.9798 25.766 26.244 25.9398 26.5784C26.1119 26.9138 26.1988 27.2814 26.1988 27.6851C26.1988 28.4437 25.9685 29.0119 25.5064 29.3881C25.0471 29.765 24.346 29.9532 23.4061 29.9532H20.8055V25.4361H23.4061ZM15.2508 29.9532V25.4361H16.1034V29.271H19.6149V29.9532H15.2508ZM13.6747 29.9532H12.8261V25.4469H13.6747V29.9532ZM7.08878 25.4361V29.271H10.3878V25.4361H11.2506V28.886C11.2506 29.3031 11.1743 29.5844 11.0197 29.7312C10.8652 29.8787 10.572 29.9532 10.1424 29.9532H7.34434C6.91457 29.9532 6.62166 29.8787 6.46746 29.7292C6.31302 29.5802 6.23629 29.2994 6.23629 28.886V25.4361H7.08878ZM3.95242 26.8928V26.4666C3.95242 26.328 3.91668 26.2319 3.84739 26.1767C3.77855 26.1235 3.65235 26.0971 3.46923 26.0971H0.85245V27.2569H3.46923C3.6665 27.2569 3.79593 27.2302 3.85826 27.1785C3.92035 27.1272 3.95242 27.0313 3.95242 26.8928ZM0 29.9532V25.4361H3.81203C4.15819 25.4361 4.41053 25.5073 4.56655 25.6478C4.72297 25.7881 4.80087 26.0117 4.80087 26.3209V26.8411C4.80087 27.0793 4.73857 27.2602 4.61466 27.3851C4.48866 27.5071 4.28971 27.5855 4.01585 27.6156C4.28261 27.6443 4.48493 27.733 4.62484 27.8839C4.76345 28.0351 4.83277 28.2373 4.83277 28.4896V29.0687C4.83277 29.3671 4.72476 29.5887 4.50977 29.7346C4.29516 29.8804 3.96647 29.9532 3.52632 29.9532H0ZM3.9431 13.876H0V14.6948V15.2222C0 16.965 0.32841 18.1563 0.979819 18.8011C1.63688 19.4402 2.90729 19.7627 4.79281 19.7627H15.8833C17.7435 19.7627 19.0082 19.4402 19.6776 18.789C20.3407 18.1437 20.6763 16.9528 20.6763 15.2156V12.4058C20.6763 10.6562 20.3474 9.46563 19.6846 8.8202C19.0267 8.1813 17.7558 7.85882 15.8833 7.85882H3.91212V3.55355H16.7391V5.73682H20.6822V4.40984C20.6822 2.83388 20.3352 1.73626 19.6472 1.11609C18.9588 0.501677 17.7122 0.191406 15.9215 0.191406H4.76752C2.91513 0.191406 1.65494 0.514263 0.998221 1.16509C0.334544 1.81011 0.0062008 3.00208 0.0062008 4.73839V7.03994C0.0062008 8.78828 0.334544 9.98004 0.985783 10.6252C1.64326 11.2638 2.90136 11.5867 4.76752 11.5867H16.7328V16.1463H3.9431V13.876ZM25.4328 19.7627V0.191406H29.9029V7.822H43.8459V0.191406H48.3531V19.7627H43.8459V11.314H29.9029V19.7627H25.4328ZM53.1093 19.7627V0.191406H57.5794V19.7627H53.1093ZM62.336 19.7627V0.191406H66.8059V16.1463H78.829V19.7627H62.336ZM98.0301 3.69648H87.9811V8.789H98.0301C98.7929 8.789 99.3201 8.67747 99.6114 8.46048C99.9027 8.24353 100.045 7.84638 100.045 7.26351V5.20417C100.045 4.6705 99.9027 4.28586 99.6114 4.05023C99.3199 3.81435 98.7926 3.69648 98.0301 3.69648ZM103.315 17.8733C103.227 17.9714 103.095 18.033 102.92 18.0587C103.007 18.1096 103.079 18.1657 103.135 18.2268C103.192 18.2879 103.269 18.3966 103.365 18.5525L103.609 18.9438H103.126L102.835 18.506C102.731 18.3505 102.66 18.2524 102.621 18.2118C102.583 18.1716 102.542 18.1437 102.499 18.1286C102.456 18.1139 102.388 18.1064 102.294 18.1064H102.212V18.9438H101.806V16.9383H102.659C102.873 16.9383 103.029 16.9564 103.126 16.9923C103.224 17.0283 103.301 17.0923 103.359 17.1843C103.418 17.2766 103.447 17.3817 103.447 17.5003C103.447 17.6511 103.403 17.7753 103.315 17.8733ZM102.542 16.1464C101.542 16.1464 100.733 16.9719 100.733 17.9555C100.733 18.9552 101.56 19.7627 102.542 19.7627C103.54 19.7627 104.348 18.9382 104.348 17.9555C104.348 16.9595 103.538 16.1464 102.542 16.1464ZM102.512 17.787C102.706 17.787 102.827 17.7786 102.875 17.7623C102.923 17.746 102.962 17.7175 102.989 17.6772C103.016 17.637 103.03 17.5867 103.03 17.5265C103.03 17.4588 103.012 17.4046 102.976 17.3626C102.94 17.321 102.889 17.2949 102.824 17.2841C102.791 17.2795 102.692 17.2771 102.528 17.2771H102.212V17.787H102.512Z" fill="#2B2A29"/>
</svg>
