<svg width="30" height="30" viewBox="0 0 30 30" fill="none" xmlns="http://www.w3.org/2000/svg">
<rect x="0.5" y="0.5" width="29" height="29" rx="14.5" stroke="black"/>
<path d="M12.6777 12.9243C12.5263 12.9243 12.4034 13.0471 12.4034 13.1986V17.3608C12.4034 17.5122 12.5263 17.6351 12.6777 17.6351H15.4524H18.2271H21.0017C21.1532 17.6351 21.276 17.5122 21.276 17.3608V13.1986C21.276 13.0471 21.1532 12.9243 21.0017 12.9243C20.8502 12.9243 20.7275 13.0471 20.7275 13.1986V17.0864H18.5014V13.1986C18.5014 13.0471 18.3787 12.9243 18.2272 12.9243H15.4525C15.301 12.9243 15.1782 13.0471 15.1782 13.1986V17.0864H12.9521V13.1986C12.9521 13.0471 12.8292 12.9243 12.6777 12.9243ZM15.7266 13.4729H17.9529V17.0864H15.7266V13.4729Z" fill="black" stroke="black" stroke-width="0.3"/>
<path d="M11.1476 13.3926L16.8395 7.70077L22.5317 13.3927C22.5852 13.4462 22.6554 13.473 22.7256 13.473C22.7958 13.473 22.866 13.4462 22.9196 13.3926C23.0267 13.2855 23.0267 13.1118 22.9196 13.0047L20.0569 10.1422V7.31288C20.0569 7.16139 19.9341 7.03857 19.7826 7.03857C19.6311 7.03857 19.5084 7.16139 19.5084 7.31288V9.59374L17.0334 7.11893C16.9262 7.01183 16.7526 7.01183 16.6455 7.11893L10.7597 13.0047C10.6526 13.1118 10.6526 13.2855 10.7597 13.3926C10.8668 13.4997 11.0405 13.4997 11.1476 13.3926Z" fill="black" stroke="black" stroke-width="0.3"/>
<path d="M21.7552 19.9614C21.62 19.9614 21.5104 20.0705 21.5104 20.205V21.218H11.4899V20.205C11.4899 20.0705 11.3802 19.9614 11.245 19.9614C11.1097 19.9614 11.0001 20.0705 11.0001 20.205V22.7179C11.0001 22.8524 11.1097 22.9614 11.245 22.9614C11.3802 22.9614 11.4899 22.8524 11.4899 22.7179V21.705H21.5104V22.7179C21.5104 22.8524 21.62 22.9614 21.7552 22.9614C21.8905 22.9614 22.0001 22.8524 22.0001 22.7179V20.205C22.0001 20.0705 21.8905 19.9614 21.7552 19.9614Z" fill="black" stroke="black" stroke-width="0.3"/>
<path d="M9.7565 8.21924C9.89101 8.21924 10.0001 8.10959 10.0001 7.97434C10.0001 7.83909 9.89101 7.72949 9.7565 7.72949H7.24362C7.10911 7.72949 7.00011 7.83915 7.00011 7.97439C7.00011 8.10964 7.10917 8.2193 7.24367 8.2193H8.2565V18.2397H7.24362C7.10911 18.2397 7.00006 18.3493 7.00006 18.4846C7.00006 18.6198 7.10911 18.7295 7.24362 18.7295H9.7565C9.89101 18.7295 10.0001 18.6198 10.0001 18.4846C10.0001 18.3493 9.89101 18.2397 9.7565 18.2397H8.74356V8.21924H9.7565Z" fill="black" stroke="black" stroke-width="0.3"/>
</svg>
