<svg width="30" height="30" viewBox="0 0 30 30" fill="none" xmlns="http://www.w3.org/2000/svg">
<rect x="0.5" y="0.5" width="29" height="29" rx="14.5" stroke="black"/>
<path d="M24.375 10.9631H18.7769V8.85021C18.7769 8.67764 18.637 8.53771 18.4644 8.53771H17.6071V7.56373C17.6071 7.39115 17.4672 7.25123 17.2946 7.25123H15.8216V6.61279C15.8216 6.44021 15.6817 6.30029 15.5091 6.30029C15.3365 6.30029 15.1966 6.44021 15.1966 6.61279V7.25127H13.7236C13.551 7.25127 13.4111 7.39119 13.4111 7.56377V8.53775H12.5538C12.3813 8.53775 12.2413 8.67768 12.2413 8.85025V13.6335H6.64324C6.47066 13.6335 6.33074 13.7734 6.33074 13.946V23.387C6.33074 23.5596 6.47066 23.6995 6.64324 23.6995H24.375C24.5476 23.6995 24.6875 23.5596 24.6875 23.387V11.2756C24.6875 11.103 24.5475 10.9631 24.375 10.9631ZM14.0361 7.87623H16.9821V8.53771H14.0361V7.87623ZM6.95574 14.2585H12.2413V23.0745H11.1567V20.6398C11.1567 20.2123 10.7862 19.8645 10.3307 19.8645H8.86629C8.41086 19.8645 8.04027 20.2123 8.04027 20.6398V23.0745H6.95574V14.2585ZM10.5317 23.0745H8.66531V20.6398C8.66531 20.5597 8.75922 20.4895 8.86633 20.4895H10.3307C10.4378 20.4895 10.5318 20.5597 10.5318 20.6398V23.0745H10.5317ZM16.7141 23.0745H14.3041V19.3173C14.3041 19.1149 14.5095 18.9439 14.7526 18.9439H16.2655C16.5087 18.9439 16.714 19.1149 16.714 19.3173V23.0745H16.7141ZM17.3391 23.0745V19.3173C17.3391 18.7668 16.8575 18.3189 16.2655 18.3189H14.7527C14.1607 18.3189 13.6791 18.7668 13.6791 19.3173V23.0745H12.8663V9.16271H18.152V23.0745H17.3391ZM22.3529 23.0745H20.4865V20.6398C20.4865 20.5597 20.5804 20.4895 20.6875 20.4895H22.152C22.259 20.4895 22.353 20.5597 22.353 20.6398V23.0745H22.3529ZM24.0625 23.0745H22.9779V20.6398C22.9779 20.2123 22.6074 19.8645 22.1519 19.8645H20.6875C20.232 19.8645 19.8615 20.2123 19.8615 20.6398V23.0745H18.7769V11.5881H24.0625V23.0745ZM17.309 9.91717H13.7092C13.5366 9.91717 13.3967 10.0571 13.3967 10.2297V11.5513C13.3967 11.7239 13.5366 11.8638 13.7092 11.8638H17.309C17.4816 11.8638 17.6215 11.7239 17.6215 11.5513V10.2297C17.6215 10.0571 17.4816 9.91717 17.309 9.91717ZM16.9965 11.2388H14.0217V10.5422H16.9965V11.2388ZM15.082 12.9471H13.7092C13.5366 12.9471 13.3967 13.0871 13.3967 13.2596V14.6324C13.3967 14.805 13.5366 14.9449 13.7092 14.9449H15.082C15.2546 14.9449 15.3945 14.805 15.3945 14.6324V13.2596C15.3945 13.0871 15.2546 12.9471 15.082 12.9471ZM14.7695 14.3199H14.0217V13.5721H14.7695V14.3199ZM17.309 12.9471H15.9362C15.7636 12.9471 15.6237 13.0871 15.6237 13.2596V14.6324C15.6237 14.805 15.7636 14.9449 15.9362 14.9449H17.309C17.4816 14.9449 17.6215 14.805 17.6215 14.6324V13.2596C17.6215 13.0871 17.4816 12.9471 17.309 12.9471ZM16.9965 14.3199H16.2487V13.5721H16.9965V14.3199ZM15.082 15.1741H13.7092C13.5366 15.1741 13.3967 15.314 13.3967 15.4866V16.8594C13.3967 17.032 13.5366 17.1719 13.7092 17.1719H15.082C15.2546 17.1719 15.3945 17.032 15.3945 16.8594V15.4866C15.3945 15.314 15.2546 15.1741 15.082 15.1741ZM14.7695 16.5469H14.0217V15.7991H14.7695V16.5469ZM17.309 15.1741H15.9362C15.7636 15.1741 15.6237 15.314 15.6237 15.4866V16.8594C15.6237 17.032 15.7636 17.1719 15.9362 17.1719H17.309C17.4816 17.1719 17.6215 17.032 17.6215 16.8594V15.4866C17.6215 15.314 17.4816 15.1741 17.309 15.1741ZM16.9965 16.5469H16.2487V15.7991H16.9965V16.5469ZM19.6198 16.9429H20.9927C21.1652 16.9429 21.3052 16.8029 21.3052 16.6304V15.2576C21.3052 15.085 21.1652 14.9451 20.9927 14.9451H19.6198C19.4472 14.9451 19.3073 15.085 19.3073 15.2576V16.6304C19.3073 16.8029 19.4472 16.9429 19.6198 16.9429ZM19.9323 15.5701H20.6802V16.3179H19.9323V15.5701ZM21.8468 16.9429H23.2196C23.3922 16.9429 23.5321 16.8029 23.5321 16.6304V15.2576C23.5321 15.085 23.3922 14.9451 23.2196 14.9451H21.8468C21.6742 14.9451 21.5343 15.085 21.5343 15.2576V16.6304C21.5343 16.8029 21.6742 16.9429 21.8468 16.9429ZM22.1593 15.5701H22.9071V16.3179H22.1593V15.5701ZM19.6198 19.1698H20.9927C21.1652 19.1698 21.3052 19.0299 21.3052 18.8573V17.4845C21.3052 17.3119 21.1652 17.172 20.9927 17.172H19.6198C19.4472 17.172 19.3073 17.3119 19.3073 17.4845V18.8573C19.3073 19.0299 19.4472 19.1698 19.6198 19.1698ZM19.9323 17.7971H20.6802V18.5449H19.9323V17.7971ZM21.8468 19.1698H23.2196C23.3922 19.1698 23.5321 19.0299 23.5321 18.8573V17.4845C23.5321 17.3119 23.3922 17.172 23.2196 17.172H21.8468C21.6742 17.172 21.5343 17.3119 21.5343 17.4845V18.8573C21.5343 19.0299 21.6742 19.1698 21.8468 19.1698ZM22.1593 17.7971H22.9071V18.5449H22.1593V17.7971ZM7.79859 16.9429H9.17145C9.34402 16.9429 9.48395 16.8029 9.48395 16.6304V15.2576C9.48395 15.085 9.34402 14.9451 9.17145 14.9451H7.79859C7.62602 14.9451 7.48609 15.085 7.48609 15.2576V16.6304C7.48609 16.8029 7.62602 16.9429 7.79859 16.9429ZM8.11109 15.5701H8.85895V16.3179H8.11109V15.5701ZM10.0256 16.9429H11.3984C11.571 16.9429 11.7109 16.8029 11.7109 16.6304V15.2576C11.7109 15.085 11.571 14.9451 11.3984 14.9451H10.0256C9.85301 14.9451 9.71309 15.085 9.71309 15.2576V16.6304C9.71309 16.8029 9.85301 16.9429 10.0256 16.9429ZM10.3381 15.5701H11.0859V16.3179H10.3381V15.5701ZM9.17145 19.1698C9.34402 19.1698 9.48395 19.0299 9.48395 18.8573V17.4845C9.48395 17.3119 9.34402 17.172 9.17145 17.172H7.79859C7.62602 17.172 7.48609 17.3119 7.48609 17.4845V18.8573C7.48609 19.0299 7.62602 19.1698 7.79859 19.1698H9.17145ZM8.11109 17.7971H8.85895V18.5449H8.11109V17.7971ZM10.0256 19.1698H11.3984C11.571 19.1698 11.7109 19.0299 11.7109 18.8573V17.4845C11.7109 17.3119 11.571 17.172 11.3984 17.172H10.0256C9.85301 17.172 9.71309 17.3119 9.71309 17.4845V18.8573C9.71309 19.0299 9.85301 19.1698 10.0256 19.1698ZM10.3381 17.7971H11.0859V18.5449H10.3381V17.7971ZM10.5946 12.2974C11.3159 12.2974 11.9028 11.7106 11.9028 10.9892C11.9028 10.4708 11.5945 10.0062 11.1323 9.79701C10.955 9.00807 10.2536 8.43514 9.42602 8.43514C9.28738 8.43514 9.15059 8.45123 9.01738 8.48314C8.68187 8.21643 8.26844 8.07139 7.83477 8.07139C6.81805 8.07139 5.98488 8.87252 5.9334 9.87666C5.55039 10.1128 5.3125 10.5296 5.3125 10.9892C5.3125 11.7106 5.89934 12.2974 6.6207 12.2974H10.5946ZM5.9375 10.9892C5.9375 10.711 6.10508 10.4626 6.36449 10.3563C6.48797 10.3058 6.56574 10.1824 6.55805 10.0492C6.5566 10.024 6.55586 9.99916 6.55586 9.97529C6.55586 9.2701 7.12957 8.69643 7.83473 8.69643C8.16832 8.69643 8.48406 8.8242 8.72383 9.05611C8.80934 9.13893 8.93449 9.1658 9.04656 9.12572C9.16793 9.08221 9.29562 9.06014 9.42605 9.06014C10.0014 9.06014 10.4818 9.49072 10.5437 10.0618C10.5575 10.1896 10.6482 10.2959 10.7723 10.3297C11.07 10.4106 11.2778 10.6818 11.2778 10.9892C11.2778 11.366 10.9713 11.6724 10.5946 11.6724H6.62074C6.24398 11.6724 5.9375 11.3659 5.9375 10.9892ZM21.8468 14.7159H23.2196C23.3922 14.7159 23.5321 14.576 23.5321 14.4034V13.0306C23.5321 12.858 23.3922 12.7181 23.2196 12.7181H21.8468C21.6742 12.7181 21.5343 12.858 21.5343 13.0306V14.4034C21.5343 14.576 21.6742 14.7159 21.8468 14.7159ZM22.1593 13.3431H22.9071V14.0909H22.1593V13.3431ZM19.6198 14.7159H20.9926C21.1652 14.7159 21.3051 14.576 21.3051 14.4034V13.0306C21.3051 12.858 21.1652 12.7181 20.9926 12.7181H19.6198C19.4472 12.7181 19.3073 12.858 19.3073 13.0306V14.4034C19.3073 14.576 19.4472 14.7159 19.6198 14.7159ZM19.9323 13.3431H20.6801V14.0909H19.9323V13.3431Z" fill="black"/>
</svg>
