<svg width="30" height="30" viewBox="0 0 30 30" fill="none" xmlns="http://www.w3.org/2000/svg">
<rect width="30" height="30" rx="15" fill="black"/>
<path d="M21 16.3333C20.8232 16.3333 20.6536 16.4035 20.5286 16.5285C20.4036 16.6535 20.3333 16.8231 20.3333 16.9999V19.6666C20.3333 19.8434 20.2631 20.013 20.1381 20.138C20.013 20.263 19.8435 20.3333 19.6667 20.3333H10.3333C10.1565 20.3333 9.98696 20.263 9.86193 20.138C9.73691 20.013 9.66667 19.8434 9.66667 19.6666V16.9999C9.66667 16.8231 9.59643 16.6535 9.47141 16.5285C9.34638 16.4035 9.17681 16.3333 9 16.3333C8.82319 16.3333 8.65362 16.4035 8.5286 16.5285C8.40357 16.6535 8.33334 16.8231 8.33334 16.9999V19.6666C8.33334 20.197 8.54405 20.7057 8.91912 21.0808C9.2942 21.4559 9.8029 21.6666 10.3333 21.6666H19.6667C20.1971 21.6666 20.7058 21.4559 21.0809 21.0808C21.456 20.7057 21.6667 20.197 21.6667 19.6666V16.9999C21.6667 16.8231 21.5964 16.6535 21.4714 16.5285C21.3464 16.4035 21.1768 16.3333 21 16.3333ZM14.5267 17.4733C14.5901 17.5339 14.6648 17.5815 14.7467 17.6133C14.8265 17.6485 14.9128 17.6667 15 17.6667C15.0872 17.6667 15.1735 17.6485 15.2533 17.6133C15.3352 17.5815 15.4099 17.5339 15.4733 17.4733L18.14 14.8066C18.2655 14.681 18.3361 14.5108 18.3361 14.3333C18.3361 14.1557 18.2655 13.9855 18.14 13.8599C18.0145 13.7344 17.8442 13.6639 17.6667 13.6639C17.4891 13.6639 17.3189 13.7344 17.1933 13.8599L15.6667 15.3933V8.99992C15.6667 8.82311 15.5964 8.65354 15.4714 8.52851C15.3464 8.40349 15.1768 8.33325 15 8.33325C14.8232 8.33325 14.6536 8.40349 14.5286 8.52851C14.4036 8.65354 14.3333 8.82311 14.3333 8.99992V15.3933L12.8067 13.8599C12.7445 13.7978 12.6707 13.7485 12.5895 13.7148C12.5083 13.6812 12.4212 13.6639 12.3333 13.6639C12.2454 13.6639 12.1584 13.6812 12.0772 13.7148C11.996 13.7485 11.9222 13.7978 11.86 13.8599C11.7978 13.9221 11.7485 13.9959 11.7149 14.0771C11.6813 14.1583 11.6639 14.2453 11.6639 14.3333C11.6639 14.4212 11.6813 14.5082 11.7149 14.5894C11.7485 14.6706 11.7978 14.7444 11.86 14.8066L14.5267 17.4733Z" fill="white"/>
</svg>
