<svg width="30" height="31" viewBox="0 0 30 31" fill="none" xmlns="http://www.w3.org/2000/svg">
<circle cx="15" cy="15.9077" r="15" fill="white"/>
<path d="M25 16C25 10.4772 20.5228 6 15 6C9.47715 6 5 10.4772 5 16C5 20.9913 8.65686 25.1283 13.4375 25.8785V18.8906H10.8984V16H13.4375V13.7969C13.4375 11.2906 14.9304 9.90625 17.2146 9.90625C18.3087 9.90625 19.4531 10.1016 19.4531 10.1016V12.5625H18.1921C16.9499 12.5625 16.5625 13.3333 16.5625 14.1242V16H19.3359L18.8926 18.8906H16.5625V25.8785C21.3431 25.1283 25 20.9913 25 16Z" fill="#1877F2"/>
<path d="M18.8926 18.8906L19.3359 16H16.5625V14.1242C16.5625 13.3333 16.9499 12.5625 18.1921 12.5625H19.4531V10.1016C19.4531 10.1016 18.3087 9.90625 17.2146 9.90625C14.9304 9.90625 13.4375 11.2906 13.4375 13.7969V16H10.8984V18.8906H13.4375V25.8785C14.4729 26.0405 15.5271 26.0405 16.5625 25.8785V18.8906H18.8926Z" fill="white"/>
</svg>
