<svg width="30" height="30" viewBox="0 0 30 30" fill="none" xmlns="http://www.w3.org/2000/svg">
<rect width="30" height="30" rx="15" fill="black"/>
<path d="M15 7C13.4178 7 11.871 7.46919 10.5554 8.34824C9.23985 9.22729 8.21447 10.4767 7.60897 11.9385C7.00347 13.4003 6.84504 15.0089 7.15372 16.5607C7.4624 18.1126 8.22433 19.538 9.34315 20.6569C10.462 21.7757 11.8874 22.5376 13.4393 22.8463C14.9911 23.155 16.5997 22.9965 18.0615 22.391C19.5233 21.7855 20.7727 20.7602 21.6518 19.4446C22.5308 18.129 23 16.5822 23 15C23 12.8783 22.1571 10.8434 20.6569 9.34315C19.1566 7.84285 17.1217 7 15 7ZM15 21.6667C13.6815 21.6667 12.3925 21.2757 11.2962 20.5431C10.1999 19.8106 9.34539 18.7694 8.84081 17.5512C8.33622 16.333 8.2042 14.9926 8.46143 13.6994C8.71867 12.4062 9.35361 11.2183 10.286 10.286C11.2183 9.3536 12.4062 8.71867 13.6994 8.46143C14.9926 8.2042 16.333 8.33622 17.5512 8.8408C18.7694 9.34539 19.8106 10.1999 20.5431 11.2962C21.2757 12.3925 21.6667 13.6815 21.6667 15C21.6667 16.7681 20.9643 18.4638 19.714 19.714C18.4638 20.9643 16.7681 21.6667 15 21.6667Z" fill="white"/>
<path d="M15.0003 13.4668C14.8235 13.4668 14.6539 13.537 14.5289 13.662C14.4039 13.7871 14.3337 13.9566 14.3337 14.1335V18.6668C14.3337 18.8436 14.4039 19.0132 14.5289 19.1382C14.6539 19.2632 14.8235 19.3335 15.0003 19.3335C15.1771 19.3335 15.3467 19.2632 15.4717 19.1382C15.5967 19.0132 15.667 18.8436 15.667 18.6668V14.1335C15.667 13.9566 15.5967 13.7871 15.4717 13.662C15.3467 13.537 15.1771 13.4668 15.0003 13.4668ZM15.0003 10.7335C14.8198 10.7402 14.6488 10.8159 14.5224 10.9448C14.3959 11.0737 14.3236 11.2462 14.3203 11.4268V11.5335C14.32 11.6204 14.3378 11.7065 14.3726 11.7863C14.4073 11.866 14.4583 11.9376 14.5223 11.9965C14.5863 12.0555 14.6618 12.1005 14.7441 12.1286C14.8264 12.1568 14.9137 12.1675 15.0003 12.1601C15.175 12.1535 15.3408 12.0812 15.4644 11.9575C15.588 11.8339 15.6604 11.6682 15.667 11.4935V11.3335C15.6675 11.2487 15.6501 11.1648 15.6158 11.0873C15.5816 11.0098 15.5314 10.9404 15.4684 10.8838C15.4054 10.8271 15.3311 10.7844 15.2504 10.7585C15.1698 10.7326 15.0845 10.724 15.0003 10.7335Z" fill="white"/>
</svg>
