<svg width="30" height="31" viewBox="0 0 30 31" fill="none" xmlns="http://www.w3.org/2000/svg">
<circle cx="15" cy="15.9077" r="15" fill="white"/>
<path d="M10.0715 25.929C9.29794 25.9204 8.53164 25.7785 7.80625 25.5096C7.27654 25.3138 6.79728 25.0021 6.40352 24.5973C5.99759 24.2043 5.68542 23.7249 5.49019 23.1947C5.22152 22.4694 5.07984 21.7031 5.07137 20.9297C5.01196 19.6438 5 19.2581 5 15.9999C5 12.7417 5.01314 12.3574 5.07078 11.0705C5.08028 10.2974 5.22213 9.53153 5.49019 8.80625C5.68637 8.27645 5.9981 7.797 6.40273 7.40273C6.79601 6.99717 7.27549 6.68529 7.80566 6.49019C8.53105 6.2213 9.29735 6.07942 10.0709 6.07078C11.3572 6.01196 11.7435 6 14.9999 6C18.2563 6 18.6424 6.01314 19.9293 6.07078C20.7026 6.08021 21.4687 6.22207 22.1941 6.49019C22.7241 6.68555 23.2034 6.99732 23.5969 7.40254C24.0022 7.79611 24.3141 8.27558 24.5096 8.80566C24.7786 9.53104 24.9205 10.2973 24.9292 11.0709C24.988 12.3578 25 12.7431 25 16.0003C25 19.2575 24.988 19.6428 24.9292 20.9297C24.9199 21.7031 24.778 22.4693 24.5096 23.1947C24.3066 23.7208 23.9957 24.1986 23.5969 24.5973C23.1982 24.996 22.7203 25.3068 22.1941 25.5096C21.4688 25.7786 20.7025 25.9205 19.9289 25.9292C18.6432 25.988 18.2567 26 14.9995 26C11.7423 26 11.357 25.9886 10.0713 25.9292" fill="url(#paint0_radial_0_123)"/>
<path d="M10.0715 25.929C9.29794 25.9204 8.53164 25.7785 7.80625 25.5096C7.27654 25.3138 6.79728 25.0021 6.40352 24.5973C5.99759 24.2043 5.68542 23.7249 5.49019 23.1947C5.22152 22.4694 5.07984 21.7031 5.07137 20.9297C5.01196 19.6438 5 19.2581 5 15.9999C5 12.7417 5.01314 12.3574 5.07078 11.0705C5.08028 10.2974 5.22213 9.53153 5.49019 8.80625C5.68637 8.27645 5.9981 7.797 6.40273 7.40273C6.79601 6.99717 7.27549 6.68529 7.80566 6.49019C8.53105 6.2213 9.29735 6.07942 10.0709 6.07078C11.3572 6.01196 11.7435 6 14.9999 6C18.2563 6 18.6424 6.01314 19.9293 6.07078C20.7026 6.08021 21.4687 6.22207 22.1941 6.49019C22.7241 6.68555 23.2034 6.99732 23.5969 7.40254C24.0022 7.79611 24.3141 8.27558 24.5096 8.80566C24.7786 9.53104 24.9205 10.2973 24.9292 11.0709C24.988 12.3578 25 12.7431 25 16.0003C25 19.2575 24.988 19.6428 24.9292 20.9297C24.9199 21.7031 24.778 22.4693 24.5096 23.1947C24.3066 23.7208 23.9957 24.1986 23.5969 24.5973C23.1982 24.996 22.7203 25.3068 22.1941 25.5096C21.4688 25.7786 20.7025 25.9205 19.9289 25.9292C18.6432 25.988 18.2567 26 14.9995 26C11.7423 26 11.357 25.9886 10.0713 25.9292" fill="url(#paint1_radial_0_123)"/>
<path d="M12.5444 16.0423C12.5444 15.5525 12.6897 15.0737 12.9619 14.6664C13.2341 14.2591 13.6209 13.9417 14.0735 13.7543C14.526 13.5669 15.024 13.5179 15.5045 13.6135C15.9849 13.7091 16.4261 13.9451 16.7725 14.2915C17.1188 14.6379 17.3546 15.0792 17.4501 15.5597C17.5456 16.0401 17.4965 16.5381 17.309 16.9906C17.1215 17.4431 16.804 17.8299 16.3967 18.102C15.9893 18.3741 15.5105 18.5192 15.0206 18.5192C14.3638 18.5191 13.7339 18.2581 13.2696 17.7936C12.8052 17.3291 12.5443 16.6991 12.5444 16.0423ZM11.2054 16.0423C11.2054 16.7969 11.4291 17.5346 11.8484 18.162C12.2676 18.7894 12.8634 19.2784 13.5606 19.5672C14.2577 19.8559 15.0249 19.9315 15.7649 19.7843C16.505 19.6371 17.1848 19.2737 17.7184 18.7401C18.252 18.2065 18.6154 17.5267 18.7626 16.7866C18.9098 16.0466 18.8342 15.2794 18.5455 14.5823C18.2567 13.8851 17.7677 13.2893 17.1403 12.8701C16.5129 12.4508 15.7752 12.2271 15.0206 12.2271C14.5196 12.227 14.0235 12.3257 13.5606 12.5174C13.0977 12.7092 12.6771 12.9902 12.3228 13.3445C11.9685 13.6988 11.6875 14.1194 11.4957 14.5823C11.304 15.0452 11.2053 15.5413 11.2054 16.0423ZM18.0953 12.0759C18.0952 12.2522 18.1474 12.4246 18.2453 12.5713C18.3432 12.7179 18.4824 12.8323 18.6453 12.8998C18.8082 12.9674 18.9874 12.9851 19.1604 12.9508C19.3334 12.9165 19.4923 12.8316 19.617 12.707C19.7418 12.5824 19.8267 12.4235 19.8612 12.2506C19.8957 12.0777 19.8781 11.8984 19.8107 11.7355C19.7433 11.5725 19.6291 11.4332 19.4825 11.3352C19.3359 11.2372 19.1636 11.1848 18.9872 11.1847C18.7509 11.1848 18.5242 11.2787 18.3571 11.4458C18.1899 11.6129 18.0959 11.8395 18.0957 12.0759M12.0193 22.0903C11.5481 22.0851 11.0814 21.9989 10.6395 21.8354C10.319 21.7119 10.028 21.5226 9.78505 21.2798C9.54214 21.037 9.35277 20.746 9.22911 20.4256C9.06554 19.9837 8.97931 19.517 8.97421 19.0458C8.93814 18.2627 8.93108 18.0274 8.93108 16.0433C8.93108 14.0592 8.93892 13.8245 8.97421 13.0406C8.97993 12.5695 9.06614 12.1028 9.22911 11.6608C9.35262 11.3402 9.54195 11.0491 9.78487 10.8062C10.0278 10.5633 10.3189 10.3739 10.6395 10.2504C11.0814 10.0869 11.5481 10.0006 12.0193 9.99553C12.8024 9.95945 13.0377 9.95239 15.021 9.95239C17.0043 9.95239 17.2398 9.96004 18.0237 9.99572C18.4948 10.0014 18.9615 10.0876 19.4035 10.2506C19.7241 10.3741 20.0152 10.5635 20.2581 10.8064C20.5011 11.0493 20.6904 11.3404 20.8139 11.661C20.9775 12.1029 21.0637 12.5696 21.0688 13.0408C21.1049 13.8251 21.1119 14.0592 21.1119 16.0435C21.1119 18.0278 21.1047 18.2623 21.0688 19.0462C21.0633 19.5173 20.9771 19.984 20.8139 20.426C20.6902 20.7464 20.5009 21.0374 20.258 21.2802C20.0151 21.523 19.724 21.7123 19.4035 21.8358C18.9616 21.9994 18.4949 22.0856 18.0237 22.0907C17.2406 22.1268 17.0053 22.1338 15.021 22.1338C13.0367 22.1338 12.8022 22.1266 12.0193 22.0907M11.9577 8.6577C11.3412 8.66982 10.7312 8.7865 10.1538 9.00279C9.66019 9.19364 9.21189 9.48554 8.83767 9.85977C8.46345 10.234 8.17155 10.6823 7.98069 11.1759C7.76444 11.7534 7.64775 12.3633 7.6356 12.9798C7.59893 13.772 7.5907 14.0253 7.5907 16.0431C7.5907 18.0609 7.59913 18.3141 7.6356 19.1064C7.64775 19.7229 7.76443 20.3329 7.98069 20.9103C8.17156 21.4039 8.46346 21.8522 8.83768 22.2264C9.21191 22.6007 9.66019 22.8926 10.1538 23.0834C10.7313 23.2996 11.3412 23.4163 11.9577 23.4285C12.7503 23.4646 13.0032 23.4734 15.021 23.4734C17.0388 23.4734 17.292 23.465 18.0843 23.4285C18.7008 23.4164 19.3108 23.2997 19.8882 23.0834C20.3818 22.8926 20.8301 22.6007 21.2043 22.2264C21.5786 21.8522 21.8705 21.4039 22.0613 20.9103C22.2779 20.333 22.3946 19.7229 22.4064 19.1064C22.4425 18.3137 22.4507 18.0609 22.4507 16.0431C22.4507 14.0253 22.4423 13.7722 22.4064 12.9798C22.3943 12.3633 22.2776 11.7533 22.0613 11.1759C21.8705 10.6824 21.5787 10.2342 21.2045 9.85994C20.8304 9.48573 20.3823 9.19377 19.8888 9.00279C19.3114 8.78636 18.7014 8.66967 18.0849 8.6577C17.2926 8.62142 17.0394 8.61279 15.022 8.61279C13.0046 8.61279 12.7508 8.62123 11.9581 8.6577" fill="white"/>
<defs>
<radialGradient id="paint0_radial_0_123" cx="0" cy="0" r="1" gradientUnits="userSpaceOnUse" gradientTransform="translate(6.2943 25.5618) scale(25.3923)">
<stop offset="0.09" stop-color="#FA8F21"/>
<stop offset="0.78" stop-color="#D82D7E"/>
</radialGradient>
<radialGradient id="paint1_radial_0_123" cx="0" cy="0" r="1" gradientUnits="userSpaceOnUse" gradientTransform="translate(18.8532 24.9194) scale(22.3455)">
<stop offset="0.64" stop-color="#8C3AAA" stop-opacity="0"/>
<stop offset="1" stop-color="#8C3AAA"/>
</radialGradient>
</defs>
</svg>
