<svg width="30" height="31" viewBox="0 0 30 31" fill="none" xmlns="http://www.w3.org/2000/svg">
<circle cx="15" cy="15.9077" r="15" fill="white"/>
<path fill-rule="evenodd" clip-rule="evenodd" d="M13.7929 12.4969H16.4106V13.8008C16.7877 13.0508 17.7547 12.377 19.2073 12.377C21.9921 12.377 22.6532 13.8699 22.6532 16.6088V21.6814H19.8339V17.2326C19.8339 15.6728 19.4568 14.7932 18.4969 14.7932C17.1654 14.7932 16.6122 15.7411 16.6122 17.2318V21.6814H13.7929V12.4969ZM8.95851 21.5616H11.7778V12.377H8.95851V21.5616ZM12.1817 9.38225C12.1818 9.61856 12.1349 9.85254 12.0438 10.0706C11.9527 10.2886 11.8191 10.4864 11.6509 10.6523C11.3101 10.9911 10.8487 11.1807 10.3682 11.1795C9.88844 11.1792 9.42814 10.9901 9.08679 10.653C8.91919 10.4865 8.7861 10.2885 8.69515 10.0705C8.6042 9.8524 8.55717 9.61853 8.55676 9.38225C8.55676 8.90509 8.74706 8.44837 9.08749 8.11146C9.42855 7.77396 9.88904 7.58475 10.3689 7.58496C10.8495 7.58496 11.3105 7.77456 11.6509 8.11146C11.9907 8.44837 12.1817 8.90509 12.1817 9.38225Z" fill="black"/>
</svg>
