<svg width="30" height="30" viewBox="0 0 30 30" fill="none" xmlns="http://www.w3.org/2000/svg">
<rect x="0.5" y="0.5" width="29" height="29" rx="14.5" stroke="black"/>
<path d="M19.1605 16.6613L19.1605 16.6613L15.33 20.4902L19.1605 16.6613ZM19.1605 16.6613C19.1626 16.6592 19.1643 16.6571 19.1656 16.6553C21.4585 14.3567 21.4563 10.6346 19.1597 8.33858C16.8614 6.04102 13.1357 6.04158 10.8382 8.33981C8.54063 10.6381 8.54119 14.3637 10.8395 16.6613L10.8748 16.6259M19.1605 16.6613L10.8748 16.6259M10.8748 16.6259L10.8395 16.6613L14.67 20.4902L10.8748 16.6259ZM15 20.6269C14.8762 20.6271 14.7574 20.5779 14.67 20.4902L15 20.6269ZM15 20.6269L15 20.5769L15 20.6269ZM15 15.05H15C16.4077 15.0484 17.5484 13.9077 17.55 12.5V12.5C17.55 11.0916 16.4083 9.94996 15 9.94996C13.5916 9.94996 12.45 11.0916 12.45 12.5C12.45 13.9083 13.5916 15.05 15 15.05ZM14.9999 7.5524L15 7.5524C16.3146 7.55125 17.5756 8.07331 18.5046 9.0034C20.4355 10.9365 20.4337 14.0689 18.5006 15.9997L18.5006 15.9998L15 19.5004L11.4994 16.0006L11.4993 16.0006C10.5692 15.0715 10.0469 13.8104 10.0481 12.4957C10.0505 9.76324 12.2675 7.55004 14.9999 7.5524ZM14.9999 10.8833C15.8924 10.8844 16.6155 11.6076 16.6166 12.5C16.6166 13.3928 15.8928 14.1166 15 14.1166C14.1071 14.1166 13.3833 13.3928 13.3833 12.5C13.3833 11.6071 14.1071 10.8833 14.9999 10.8833ZM8.74998 22.45C8.49226 22.45 8.28331 22.6589 8.28331 22.9166C8.28331 23.1743 8.49226 23.3833 8.74998 23.3833H21.25C21.5077 23.3833 21.7166 23.1743 21.7166 22.9166C21.7166 22.6589 21.5077 22.45 21.25 22.45H8.74998ZM19.1737 16.638L19.1739 16.6374L19.174 16.6371C19.1739 16.6373 19.1738 16.6377 19.1737 16.638Z" fill="black" stroke="black" stroke-width="0.1"/>
</svg>
