<svg width="40" height="41" viewBox="0 0 40 41" fill="none" xmlns="http://www.w3.org/2000/svg">
<path d="M40 20.7894C40 9.74373 31.0457 0.789429 20 0.789429C8.9543 0.789429 0 9.74373 0 20.7894C0 31.8351 8.9543 40.7894 20 40.7894C31.0457 40.7894 40 31.8351 40 20.7894Z" fill="#0DC143"/>
<path d="M28.9588 11.799C26.8147 9.59172 23.8507 8.39355 20.8236 8.39355C14.3912 8.39355 9.22007 13.6278 9.28315 19.9971C9.28315 22.0151 9.85073 23.9701 10.7966 25.7359L9.15698 31.7269L15.2741 30.1503C16.9768 31.0962 18.8687 31.5377 20.7606 31.5377C27.13 31.5377 32.3012 26.3035 32.3012 19.9341C32.3012 16.844 31.103 13.9431 28.9588 11.799ZM20.8236 29.5827C19.121 29.5827 17.4182 29.1413 15.9678 28.2584L15.5894 28.0692L11.9318 29.0151L12.8777 25.4206L12.6255 25.0422C9.85073 20.5647 11.175 14.6368 15.7156 11.8621C20.2561 9.08725 26.121 10.4116 28.8957 14.9521C31.6705 19.4926 30.3462 25.3576 25.8056 28.1323C24.3552 29.0782 22.5894 29.5827 20.8236 29.5827ZM26.3732 22.5827L25.6796 22.2674C25.6796 22.2674 24.6705 21.826 24.0399 21.5106C23.9768 21.5106 23.9137 21.4476 23.8507 21.4476C23.6615 21.4476 23.5354 21.5106 23.4092 21.5737C23.4092 21.5737 23.3462 21.6368 22.4633 22.6458C22.4002 22.772 22.2741 22.835 22.148 22.835H22.0849C22.0219 22.835 21.8957 22.772 21.8327 22.7089L21.5174 22.5827C20.8236 22.2674 20.1931 21.8891 19.6886 21.3846C19.5624 21.2584 19.3732 21.1323 19.2471 21.0061C18.8056 20.5647 18.3642 20.0602 18.0489 19.4926L17.9858 19.3666C17.9227 19.3035 17.9227 19.2404 17.8597 19.1143C17.8597 18.9881 17.8597 18.8621 17.9227 18.799C17.9227 18.799 18.175 18.4836 18.3642 18.2945C18.4903 18.1683 18.5534 17.9791 18.6796 17.8531C18.8056 17.6638 18.8687 17.4116 18.8056 17.2224C18.7426 16.9071 17.9858 15.2044 17.7966 14.826C17.6705 14.6368 17.5444 14.5737 17.3552 14.5106H17.166C17.0399 14.5106 16.8507 14.5106 16.6615 14.5106C16.5354 14.5106 16.4092 14.5737 16.2831 14.5737L16.2201 14.6368C16.0939 14.6999 15.9678 14.826 15.8416 14.8891C15.7156 15.0151 15.6525 15.1413 15.5264 15.2674C15.0849 15.835 14.8326 16.5287 14.8326 17.2224C14.8326 17.7269 14.9588 18.2314 15.148 18.6728L15.2111 18.8621C15.7786 20.0602 16.5354 21.1323 17.5444 22.0782L17.7966 22.3305C17.9858 22.5197 18.175 22.6458 18.3011 22.835C19.6255 23.9701 21.139 24.79 22.8416 25.2314C23.0309 25.2945 23.2832 25.2945 23.4723 25.3576C23.6615 25.3576 23.9137 25.3576 24.103 25.3576C24.4182 25.3576 24.7966 25.2314 25.0489 25.1053C25.2381 24.9791 25.3642 24.9791 25.4903 24.8531L25.6165 24.7269C25.7426 24.6007 25.8687 24.5377 25.9948 24.4116C26.121 24.2855 26.2471 24.1593 26.3102 24.0332C26.4363 23.781 26.4993 23.4656 26.5624 23.1503C26.5624 23.0242 26.5624 22.835 26.5624 22.7089C26.5624 22.7089 26.4993 22.6458 26.3732 22.5827Z" fill="white"/>
</svg>
